<mxfile host="app.diagrams.net" modified="2023-11-14T12:41:29.893Z" agent="Mozilla/5.0 (Windows NT 10.0; Win64; x64) AppleWebKit/537.36 (KHTML, like Gecko) Chrome/119.0.0.0 Safari/537.36" etag="nQHu9dcG5Q3fohuTsSjt" version="22.1.0" type="device">
  <diagram id="C5RBs43oDa-KdzZeNtuy" name="Page-1">
    <mxGraphModel dx="1100" dy="548" grid="1" gridSize="10" guides="1" tooltips="1" connect="1" arrows="1" fold="1" page="1" pageScale="1" pageWidth="827" pageHeight="1169" math="0" shadow="0">
      <root>
        <mxCell id="WIyWlLk6GJQsqaUBKTNV-0" />
        <mxCell id="WIyWlLk6GJQsqaUBKTNV-1" parent="WIyWlLk6GJQsqaUBKTNV-0" />
        <mxCell id="naMmjmBXUKvRt6qNmk4T-25" value="Services" style="rounded=1;whiteSpace=wrap;html=1;labelPosition=center;verticalLabelPosition=top;align=center;verticalAlign=bottom;" vertex="1" parent="WIyWlLk6GJQsqaUBKTNV-1">
          <mxGeometry x="882" y="388" width="110" height="50" as="geometry" />
        </mxCell>
        <mxCell id="naMmjmBXUKvRt6qNmk4T-1" value="" style="html=1;verticalLabelPosition=bottom;align=center;labelBackgroundColor=#ffffff;verticalAlign=top;strokeWidth=2;strokeColor=#0080F0;shadow=0;dashed=0;shape=mxgraph.ios7.icons.user;" vertex="1" parent="WIyWlLk6GJQsqaUBKTNV-1">
          <mxGeometry x="655" y="60" width="30" height="30" as="geometry" />
        </mxCell>
        <mxCell id="naMmjmBXUKvRt6qNmk4T-2" value="" style="rounded=0;html=1;jettySize=auto;orthogonalLoop=1;fontSize=11;endArrow=block;endFill=0;endSize=8;strokeWidth=1;shadow=0;labelBackgroundColor=none;edgeStyle=orthogonalEdgeStyle;" edge="1" parent="WIyWlLk6GJQsqaUBKTNV-1">
          <mxGeometry relative="1" as="geometry">
            <mxPoint x="669.44" y="90" as="sourcePoint" />
            <mxPoint x="669" y="120" as="targetPoint" />
          </mxGeometry>
        </mxCell>
        <mxCell id="naMmjmBXUKvRt6qNmk4T-3" value="Landing-Screen" style="rounded=1;whiteSpace=wrap;html=1;labelPosition=center;verticalLabelPosition=top;align=center;verticalAlign=bottom;" vertex="1" parent="WIyWlLk6GJQsqaUBKTNV-1">
          <mxGeometry x="430" y="150" width="550" height="60" as="geometry" />
        </mxCell>
        <mxCell id="naMmjmBXUKvRt6qNmk4T-17" style="edgeStyle=orthogonalEdgeStyle;rounded=0;orthogonalLoop=1;jettySize=auto;html=1;entryX=0.5;entryY=0;entryDx=0;entryDy=0;" edge="1" parent="WIyWlLk6GJQsqaUBKTNV-1" source="naMmjmBXUKvRt6qNmk4T-5" target="naMmjmBXUKvRt6qNmk4T-10">
          <mxGeometry relative="1" as="geometry">
            <mxPoint x="670" y="240" as="targetPoint" />
          </mxGeometry>
        </mxCell>
        <mxCell id="naMmjmBXUKvRt6qNmk4T-39" value="/auth/CS" style="edgeLabel;html=1;align=center;verticalAlign=middle;resizable=0;points=[];labelPosition=center;verticalLabelPosition=middle;" vertex="1" connectable="0" parent="naMmjmBXUKvRt6qNmk4T-17">
          <mxGeometry x="-0.1406" relative="1" as="geometry">
            <mxPoint y="6" as="offset" />
          </mxGeometry>
        </mxCell>
        <mxCell id="naMmjmBXUKvRt6qNmk4T-5" value="CS" style="rounded=1;whiteSpace=wrap;html=1;" vertex="1" parent="WIyWlLk6GJQsqaUBKTNV-1">
          <mxGeometry x="655" y="165" width="30" height="30" as="geometry" />
        </mxCell>
        <mxCell id="naMmjmBXUKvRt6qNmk4T-19" style="edgeStyle=orthogonalEdgeStyle;rounded=0;orthogonalLoop=1;jettySize=auto;html=1;entryX=0.5;entryY=0;entryDx=0;entryDy=0;" edge="1" parent="WIyWlLk6GJQsqaUBKTNV-1" source="naMmjmBXUKvRt6qNmk4T-6" target="naMmjmBXUKvRt6qNmk4T-20">
          <mxGeometry relative="1" as="geometry">
            <mxPoint x="934" y="240" as="targetPoint" />
          </mxGeometry>
        </mxCell>
        <mxCell id="naMmjmBXUKvRt6qNmk4T-40" value="/auth/Privilege" style="edgeLabel;html=1;align=center;verticalAlign=middle;resizable=0;points=[];labelPosition=center;verticalLabelPosition=middle;" vertex="1" connectable="0" parent="naMmjmBXUKvRt6qNmk4T-19">
          <mxGeometry x="0.0156" y="1" relative="1" as="geometry">
            <mxPoint x="1" as="offset" />
          </mxGeometry>
        </mxCell>
        <mxCell id="naMmjmBXUKvRt6qNmk4T-6" value="PS" style="rounded=1;whiteSpace=wrap;html=1;" vertex="1" parent="WIyWlLk6GJQsqaUBKTNV-1">
          <mxGeometry x="918" y="165" width="30" height="30" as="geometry" />
        </mxCell>
        <mxCell id="naMmjmBXUKvRt6qNmk4T-18" style="edgeStyle=orthogonalEdgeStyle;rounded=0;orthogonalLoop=1;jettySize=auto;html=1;entryX=0.5;entryY=0;entryDx=0;entryDy=0;" edge="1" parent="WIyWlLk6GJQsqaUBKTNV-1" source="naMmjmBXUKvRt6qNmk4T-10" target="naMmjmBXUKvRt6qNmk4T-16">
          <mxGeometry relative="1" as="geometry">
            <mxPoint x="670" y="369" as="targetPoint" />
          </mxGeometry>
        </mxCell>
        <mxCell id="naMmjmBXUKvRt6qNmk4T-23" value="/services/CS" style="edgeLabel;html=1;align=center;verticalAlign=middle;resizable=0;points=[];" vertex="1" connectable="0" parent="naMmjmBXUKvRt6qNmk4T-18">
          <mxGeometry x="-0.2913" y="1" relative="1" as="geometry">
            <mxPoint y="9" as="offset" />
          </mxGeometry>
        </mxCell>
        <mxCell id="naMmjmBXUKvRt6qNmk4T-10" value="Auth" style="rhombus;whiteSpace=wrap;html=1;shadow=0;fontFamily=Helvetica;fontSize=12;align=center;strokeWidth=1;spacing=6;spacingTop=-4;" vertex="1" parent="WIyWlLk6GJQsqaUBKTNV-1">
          <mxGeometry x="637.5" y="259" width="65" height="50" as="geometry" />
        </mxCell>
        <mxCell id="naMmjmBXUKvRt6qNmk4T-16" value="CS-Services" style="rounded=1;whiteSpace=wrap;html=1;labelBackgroundColor=default;labelPosition=center;verticalLabelPosition=middle;align=center;verticalAlign=middle;" vertex="1" parent="WIyWlLk6GJQsqaUBKTNV-1">
          <mxGeometry x="615" y="388" width="110" height="50" as="geometry" />
        </mxCell>
        <mxCell id="naMmjmBXUKvRt6qNmk4T-21" style="edgeStyle=orthogonalEdgeStyle;rounded=0;orthogonalLoop=1;jettySize=auto;html=1;exitX=0.5;exitY=1;exitDx=0;exitDy=0;" edge="1" parent="WIyWlLk6GJQsqaUBKTNV-1">
          <mxGeometry relative="1" as="geometry">
            <mxPoint x="934" y="369" as="targetPoint" />
            <mxPoint x="934" y="309" as="sourcePoint" />
          </mxGeometry>
        </mxCell>
        <mxCell id="naMmjmBXUKvRt6qNmk4T-22" value="&lt;span style=&quot;background-color: rgb(247, 247, 247);&quot;&gt;&lt;font&gt;/Privilege-user&lt;/font&gt;&lt;/span&gt;" style="edgeLabel;html=1;align=center;verticalAlign=middle;resizable=0;points=[];spacingTop=0;labelBackgroundColor=#F7F7F7;fontColor=#000000;" vertex="1" connectable="0" parent="naMmjmBXUKvRt6qNmk4T-21">
          <mxGeometry x="-0.4209" y="-2" relative="1" as="geometry">
            <mxPoint x="7" as="offset" />
          </mxGeometry>
        </mxCell>
        <mxCell id="naMmjmBXUKvRt6qNmk4T-26" style="edgeStyle=orthogonalEdgeStyle;rounded=0;orthogonalLoop=1;jettySize=auto;html=1;" edge="1" parent="WIyWlLk6GJQsqaUBKTNV-1" source="naMmjmBXUKvRt6qNmk4T-20">
          <mxGeometry relative="1" as="geometry">
            <mxPoint x="1061" y="284" as="targetPoint" />
          </mxGeometry>
        </mxCell>
        <mxCell id="naMmjmBXUKvRt6qNmk4T-27" value="Not Privilege" style="edgeLabel;html=1;align=center;verticalAlign=bottom;resizable=0;points=[];labelPosition=center;verticalLabelPosition=top;" vertex="1" connectable="0" parent="naMmjmBXUKvRt6qNmk4T-26">
          <mxGeometry x="-0.2398" relative="1" as="geometry">
            <mxPoint x="10" as="offset" />
          </mxGeometry>
        </mxCell>
        <mxCell id="naMmjmBXUKvRt6qNmk4T-20" value="Auth" style="rhombus;whiteSpace=wrap;html=1;shadow=0;fontFamily=Helvetica;fontSize=12;align=center;strokeWidth=1;spacing=6;spacingTop=-4;" vertex="1" parent="WIyWlLk6GJQsqaUBKTNV-1">
          <mxGeometry x="900.5" y="259" width="65" height="50" as="geometry" />
        </mxCell>
        <mxCell id="naMmjmBXUKvRt6qNmk4T-28" value="Become Privilege user" style="rounded=1;whiteSpace=wrap;html=1;" vertex="1" parent="WIyWlLk6GJQsqaUBKTNV-1">
          <mxGeometry x="1060" y="259" width="110" height="50" as="geometry" />
        </mxCell>
        <mxCell id="naMmjmBXUKvRt6qNmk4T-38" style="edgeStyle=orthogonalEdgeStyle;rounded=0;orthogonalLoop=1;jettySize=auto;html=1;entryX=0.01;entryY=0.619;entryDx=0;entryDy=0;entryPerimeter=0;" edge="1" parent="WIyWlLk6GJQsqaUBKTNV-1">
          <mxGeometry relative="1" as="geometry">
            <mxPoint x="923.1999999999998" y="504.14" as="targetPoint" />
            <mxPoint x="899" y="421" as="sourcePoint" />
            <Array as="points">
              <mxPoint x="899" y="505" />
            </Array>
          </mxGeometry>
        </mxCell>
        <mxCell id="naMmjmBXUKvRt6qNmk4T-29" value="S1" style="rounded=1;whiteSpace=wrap;html=1;" vertex="1" parent="WIyWlLk6GJQsqaUBKTNV-1">
          <mxGeometry x="889" y="402" width="20" height="20" as="geometry" />
        </mxCell>
        <mxCell id="naMmjmBXUKvRt6qNmk4T-30" value="S1" style="rounded=1;whiteSpace=wrap;html=1;" vertex="1" parent="WIyWlLk6GJQsqaUBKTNV-1">
          <mxGeometry x="922" y="402" width="20" height="20" as="geometry" />
        </mxCell>
        <mxCell id="naMmjmBXUKvRt6qNmk4T-31" value="S1" style="rounded=1;whiteSpace=wrap;html=1;" vertex="1" parent="WIyWlLk6GJQsqaUBKTNV-1">
          <mxGeometry x="959" y="402" width="20" height="20" as="geometry" />
        </mxCell>
        <mxCell id="naMmjmBXUKvRt6qNmk4T-34" style="edgeStyle=orthogonalEdgeStyle;rounded=0;orthogonalLoop=1;jettySize=auto;html=1;exitX=1;exitY=0.5;exitDx=0;exitDy=0;entryX=0;entryY=0.5;entryDx=0;entryDy=0;" edge="1" parent="WIyWlLk6GJQsqaUBKTNV-1" source="naMmjmBXUKvRt6qNmk4T-28" target="naMmjmBXUKvRt6qNmk4T-35">
          <mxGeometry relative="1" as="geometry">
            <mxPoint x="1270" y="284.33333333333337" as="targetPoint" />
            <mxPoint x="1180" y="284.0000000000001" as="sourcePoint" />
          </mxGeometry>
        </mxCell>
        <mxCell id="naMmjmBXUKvRt6qNmk4T-35" value="Register Privilege User" style="rounded=1;whiteSpace=wrap;html=1;" vertex="1" parent="WIyWlLk6GJQsqaUBKTNV-1">
          <mxGeometry x="1194" y="254" width="120" height="60" as="geometry" />
        </mxCell>
        <mxCell id="naMmjmBXUKvRt6qNmk4T-49" style="edgeStyle=orthogonalEdgeStyle;rounded=0;orthogonalLoop=1;jettySize=auto;html=1;exitX=0.25;exitY=1;exitDx=0;exitDy=0;entryX=0.25;entryY=1;entryDx=0;entryDy=0;" edge="1" parent="WIyWlLk6GJQsqaUBKTNV-1" target="naMmjmBXUKvRt6qNmk4T-37">
          <mxGeometry relative="1" as="geometry">
            <mxPoint x="951.9999999999998" y="492" as="targetPoint" />
            <mxPoint x="847.3049999999998" y="546.164" as="sourcePoint" />
            <Array as="points">
              <mxPoint x="952" y="546" />
            </Array>
          </mxGeometry>
        </mxCell>
        <mxCell id="naMmjmBXUKvRt6qNmk4T-54" value="response" style="edgeLabel;html=1;align=center;verticalAlign=middle;resizable=0;points=[];" vertex="1" connectable="0" parent="naMmjmBXUKvRt6qNmk4T-49">
          <mxGeometry x="0.0356" y="3" relative="1" as="geometry">
            <mxPoint x="-5" y="-6" as="offset" />
          </mxGeometry>
        </mxCell>
        <mxCell id="naMmjmBXUKvRt6qNmk4T-37" value="Privilege Service 1" style="rounded=1;whiteSpace=wrap;html=1;" vertex="1" parent="WIyWlLk6GJQsqaUBKTNV-1">
          <mxGeometry x="922" y="483" width="120" height="41" as="geometry" />
        </mxCell>
        <mxCell id="naMmjmBXUKvRt6qNmk4T-41" value="&lt;span style=&quot;font-size: 17px;&quot;&gt;&lt;b&gt;B&lt;br&gt;L&lt;br&gt;O&lt;br&gt;C&lt;br&gt;K&lt;br&gt;C&lt;br&gt;H&lt;br&gt;A&lt;br&gt;I&lt;br&gt;N&lt;br&gt;&lt;/b&gt;&lt;/span&gt;" style="rounded=1;whiteSpace=wrap;html=1;fillColor=#dae8fc;strokeColor=#6c8ebf;" vertex="1" parent="WIyWlLk6GJQsqaUBKTNV-1">
          <mxGeometry x="763.75" y="380" width="85" height="214" as="geometry" />
        </mxCell>
        <mxCell id="naMmjmBXUKvRt6qNmk4T-45" style="edgeStyle=orthogonalEdgeStyle;rounded=0;orthogonalLoop=1;jettySize=auto;html=1;exitX=1;exitY=0.25;exitDx=0;exitDy=0;entryX=0.015;entryY=0.096;entryDx=0;entryDy=0;entryPerimeter=0;" edge="1" parent="WIyWlLk6GJQsqaUBKTNV-1" source="naMmjmBXUKvRt6qNmk4T-16" target="naMmjmBXUKvRt6qNmk4T-41">
          <mxGeometry relative="1" as="geometry" />
        </mxCell>
        <mxCell id="naMmjmBXUKvRt6qNmk4T-55" value="req" style="edgeLabel;html=1;align=center;verticalAlign=bottom;resizable=0;points=[];labelPosition=center;verticalLabelPosition=top;" vertex="1" connectable="0" parent="naMmjmBXUKvRt6qNmk4T-45">
          <mxGeometry x="-0.3778" relative="1" as="geometry">
            <mxPoint as="offset" />
          </mxGeometry>
        </mxCell>
        <mxCell id="naMmjmBXUKvRt6qNmk4T-46" style="edgeStyle=orthogonalEdgeStyle;rounded=0;orthogonalLoop=1;jettySize=auto;html=1;exitX=0;exitY=0.211;exitDx=0;exitDy=0;entryX=1;entryY=0.75;entryDx=0;entryDy=0;exitPerimeter=0;" edge="1" parent="WIyWlLk6GJQsqaUBKTNV-1" source="naMmjmBXUKvRt6qNmk4T-41" target="naMmjmBXUKvRt6qNmk4T-16">
          <mxGeometry relative="1" as="geometry" />
        </mxCell>
        <mxCell id="naMmjmBXUKvRt6qNmk4T-56" value="res" style="edgeLabel;html=1;align=center;verticalAlign=top;resizable=0;points=[];labelPosition=center;verticalLabelPosition=bottom;" vertex="1" connectable="0" parent="naMmjmBXUKvRt6qNmk4T-46">
          <mxGeometry x="0.0339" relative="1" as="geometry">
            <mxPoint as="offset" />
          </mxGeometry>
        </mxCell>
        <mxCell id="naMmjmBXUKvRt6qNmk4T-52" style="edgeStyle=orthogonalEdgeStyle;rounded=0;orthogonalLoop=1;jettySize=auto;html=1;" edge="1" parent="WIyWlLk6GJQsqaUBKTNV-1" source="naMmjmBXUKvRt6qNmk4T-37">
          <mxGeometry relative="1" as="geometry">
            <mxPoint x="848.75" y="572" as="targetPoint" />
            <mxPoint x="1010.75" y="517" as="sourcePoint" />
            <Array as="points">
              <mxPoint x="1013" y="572" />
            </Array>
          </mxGeometry>
        </mxCell>
        <mxCell id="naMmjmBXUKvRt6qNmk4T-53" value="request" style="edgeLabel;html=1;align=center;verticalAlign=middle;resizable=0;points=[];" vertex="1" connectable="0" parent="naMmjmBXUKvRt6qNmk4T-52">
          <mxGeometry x="0.0632" y="-1" relative="1" as="geometry">
            <mxPoint x="-39" y="9" as="offset" />
          </mxGeometry>
        </mxCell>
        <mxCell id="naMmjmBXUKvRt6qNmk4T-59" style="edgeStyle=orthogonalEdgeStyle;rounded=0;orthogonalLoop=1;jettySize=auto;html=1;exitX=0;exitY=0.5;exitDx=0;exitDy=0;entryX=1;entryY=0.5;entryDx=0;entryDy=0;endArrow=classic;endFill=1;startArrow=classic;startFill=1;" edge="1" parent="WIyWlLk6GJQsqaUBKTNV-1" source="naMmjmBXUKvRt6qNmk4T-57" target="naMmjmBXUKvRt6qNmk4T-10">
          <mxGeometry relative="1" as="geometry" />
        </mxCell>
        <mxCell id="naMmjmBXUKvRt6qNmk4T-60" value="&lt;font style=&quot;font-size: 9px;&quot;&gt;request&lt;/font&gt;" style="edgeLabel;html=1;align=center;verticalAlign=middle;resizable=0;points=[];" vertex="1" connectable="0" parent="naMmjmBXUKvRt6qNmk4T-59">
          <mxGeometry x="0.1034" y="1" relative="1" as="geometry">
            <mxPoint x="3" y="-14" as="offset" />
          </mxGeometry>
        </mxCell>
        <mxCell id="naMmjmBXUKvRt6qNmk4T-66" style="edgeStyle=orthogonalEdgeStyle;rounded=0;orthogonalLoop=1;jettySize=auto;html=1;exitX=0.5;exitY=0;exitDx=0;exitDy=0;startArrow=classic;startFill=0;" edge="1" parent="WIyWlLk6GJQsqaUBKTNV-1" source="naMmjmBXUKvRt6qNmk4T-57">
          <mxGeometry relative="1" as="geometry">
            <mxPoint x="798.1428571428571" y="210" as="targetPoint" />
          </mxGeometry>
        </mxCell>
        <mxCell id="naMmjmBXUKvRt6qNmk4T-67" value="request" style="edgeLabel;html=1;align=right;verticalAlign=middle;resizable=0;points=[];labelPosition=left;verticalLabelPosition=middle;" vertex="1" connectable="0" parent="naMmjmBXUKvRt6qNmk4T-66">
          <mxGeometry x="0.1745" y="1" relative="1" as="geometry">
            <mxPoint x="-3" y="17" as="offset" />
          </mxGeometry>
        </mxCell>
        <mxCell id="naMmjmBXUKvRt6qNmk4T-57" value="DB" style="rounded=1;whiteSpace=wrap;html=1;fillColor=#d5e8d4;strokeColor=#82b366;" vertex="1" parent="WIyWlLk6GJQsqaUBKTNV-1">
          <mxGeometry x="746" y="266" width="104" height="36" as="geometry" />
        </mxCell>
        <mxCell id="naMmjmBXUKvRt6qNmk4T-61" value="&lt;font style=&quot;font-size: 9px;&quot;&gt;response&lt;/font&gt;" style="edgeLabel;html=1;align=center;verticalAlign=middle;resizable=0;points=[];" vertex="1" connectable="0" parent="WIyWlLk6GJQsqaUBKTNV-1">
          <mxGeometry x="740" y="278" as="geometry">
            <mxPoint x="-15" y="16" as="offset" />
          </mxGeometry>
        </mxCell>
        <mxCell id="naMmjmBXUKvRt6qNmk4T-62" style="edgeStyle=orthogonalEdgeStyle;rounded=0;orthogonalLoop=1;jettySize=auto;html=1;exitX=0;exitY=0.5;exitDx=0;exitDy=0;entryX=0.999;entryY=0.527;entryDx=0;entryDy=0;endArrow=classic;endFill=1;startArrow=classic;startFill=1;entryPerimeter=0;" edge="1" parent="WIyWlLk6GJQsqaUBKTNV-1" target="naMmjmBXUKvRt6qNmk4T-57">
          <mxGeometry relative="1" as="geometry">
            <mxPoint x="900.5" y="284" as="sourcePoint" />
            <mxPoint x="857.5" y="284" as="targetPoint" />
          </mxGeometry>
        </mxCell>
        <mxCell id="naMmjmBXUKvRt6qNmk4T-63" value="&lt;font style=&quot;font-size: 9px;&quot;&gt;request&lt;/font&gt;" style="edgeLabel;html=1;align=center;verticalAlign=middle;resizable=0;points=[];" vertex="1" connectable="0" parent="naMmjmBXUKvRt6qNmk4T-62">
          <mxGeometry x="0.1034" y="1" relative="1" as="geometry">
            <mxPoint x="3" y="-14" as="offset" />
          </mxGeometry>
        </mxCell>
        <mxCell id="naMmjmBXUKvRt6qNmk4T-64" value="&lt;font style=&quot;font-size: 9px;&quot;&gt;response&lt;/font&gt;" style="edgeLabel;html=1;align=center;verticalAlign=middle;resizable=0;points=[];" vertex="1" connectable="0" parent="WIyWlLk6GJQsqaUBKTNV-1">
          <mxGeometry x="889.5" y="280" as="geometry">
            <mxPoint x="-15" y="16" as="offset" />
          </mxGeometry>
        </mxCell>
        <mxCell id="naMmjmBXUKvRt6qNmk4T-68" value="response" style="edgeLabel;html=1;align=right;verticalAlign=middle;resizable=0;points=[];labelPosition=left;verticalLabelPosition=middle;" vertex="1" connectable="0" parent="WIyWlLk6GJQsqaUBKTNV-1">
          <mxGeometry x="853.0017517935835" y="222.0031362423942" as="geometry" />
        </mxCell>
        <mxCell id="naMmjmBXUKvRt6qNmk4T-70" style="edgeStyle=orthogonalEdgeStyle;rounded=0;orthogonalLoop=1;jettySize=auto;html=1;exitX=0.5;exitY=1;exitDx=0;exitDy=0;" edge="1" parent="WIyWlLk6GJQsqaUBKTNV-1" source="naMmjmBXUKvRt6qNmk4T-69">
          <mxGeometry relative="1" as="geometry">
            <mxPoint x="496.0322580645161" y="260" as="targetPoint" />
          </mxGeometry>
        </mxCell>
        <mxCell id="naMmjmBXUKvRt6qNmk4T-71" value="/auth/admin" style="edgeLabel;html=1;align=center;verticalAlign=middle;resizable=0;points=[];" vertex="1" connectable="0" parent="naMmjmBXUKvRt6qNmk4T-70">
          <mxGeometry x="-0.1503" y="2" relative="1" as="geometry">
            <mxPoint as="offset" />
          </mxGeometry>
        </mxCell>
        <mxCell id="naMmjmBXUKvRt6qNmk4T-69" value="Admin" style="rounded=1;whiteSpace=wrap;html=1;" vertex="1" parent="WIyWlLk6GJQsqaUBKTNV-1">
          <mxGeometry x="466" y="165" width="60" height="30" as="geometry" />
        </mxCell>
        <mxCell id="naMmjmBXUKvRt6qNmk4T-73" style="edgeStyle=orthogonalEdgeStyle;rounded=0;orthogonalLoop=1;jettySize=auto;html=1;exitX=0.5;exitY=1;exitDx=0;exitDy=0;" edge="1" parent="WIyWlLk6GJQsqaUBKTNV-1" source="naMmjmBXUKvRt6qNmk4T-72">
          <mxGeometry relative="1" as="geometry">
            <mxPoint x="496" y="390" as="targetPoint" />
          </mxGeometry>
        </mxCell>
        <mxCell id="naMmjmBXUKvRt6qNmk4T-74" value="/admin" style="edgeLabel;html=1;align=center;verticalAlign=middle;resizable=0;points=[];" vertex="1" connectable="0" parent="naMmjmBXUKvRt6qNmk4T-73">
          <mxGeometry x="-0.219" relative="1" as="geometry">
            <mxPoint as="offset" />
          </mxGeometry>
        </mxCell>
        <mxCell id="naMmjmBXUKvRt6qNmk4T-83" style="edgeStyle=orthogonalEdgeStyle;rounded=0;orthogonalLoop=1;jettySize=auto;html=1;startArrow=block;startFill=1;exitX=1;exitY=0.5;exitDx=0;exitDy=0;entryX=0.504;entryY=1.045;entryDx=0;entryDy=0;entryPerimeter=0;" edge="1" parent="WIyWlLk6GJQsqaUBKTNV-1" source="naMmjmBXUKvRt6qNmk4T-72" target="naMmjmBXUKvRt6qNmk4T-57">
          <mxGeometry relative="1" as="geometry">
            <mxPoint x="799" y="310" as="targetPoint" />
            <mxPoint x="550" y="280" as="sourcePoint" />
            <Array as="points">
              <mxPoint x="591" y="284" />
              <mxPoint x="591" y="330" />
              <mxPoint x="798" y="330" />
            </Array>
          </mxGeometry>
        </mxCell>
        <mxCell id="naMmjmBXUKvRt6qNmk4T-84" value="&lt;font style=&quot;font-size: 10px;&quot;&gt;request&lt;/font&gt;" style="edgeLabel;html=1;align=center;verticalAlign=middle;resizable=0;points=[];" vertex="1" connectable="0" parent="naMmjmBXUKvRt6qNmk4T-83">
          <mxGeometry x="-0.5505" relative="1" as="geometry">
            <mxPoint x="178" y="20" as="offset" />
          </mxGeometry>
        </mxCell>
        <mxCell id="naMmjmBXUKvRt6qNmk4T-85" value="&lt;font style=&quot;font-size: 9px;&quot;&gt;response&lt;/font&gt;" style="edgeLabel;html=1;align=center;verticalAlign=middle;resizable=0;points=[];" vertex="1" connectable="0" parent="naMmjmBXUKvRt6qNmk4T-83">
          <mxGeometry x="-0.6292" y="-1" relative="1" as="geometry">
            <mxPoint x="-28" y="8" as="offset" />
          </mxGeometry>
        </mxCell>
        <mxCell id="naMmjmBXUKvRt6qNmk4T-72" value="Auth" style="rhombus;whiteSpace=wrap;html=1;shadow=0;fontFamily=Helvetica;fontSize=12;align=center;strokeWidth=1;spacing=6;spacingTop=-4;" vertex="1" parent="WIyWlLk6GJQsqaUBKTNV-1">
          <mxGeometry x="463.5" y="259" width="65" height="50" as="geometry" />
        </mxCell>
        <mxCell id="naMmjmBXUKvRt6qNmk4T-76" style="edgeStyle=orthogonalEdgeStyle;rounded=0;orthogonalLoop=1;jettySize=auto;html=1;exitX=0.75;exitY=1;exitDx=0;exitDy=0;entryX=0;entryY=0.75;entryDx=0;entryDy=0;" edge="1" parent="WIyWlLk6GJQsqaUBKTNV-1" source="naMmjmBXUKvRt6qNmk4T-75" target="naMmjmBXUKvRt6qNmk4T-41">
          <mxGeometry relative="1" as="geometry">
            <mxPoint x="523.6363636363635" y="570.0000000000001" as="targetPoint" />
          </mxGeometry>
        </mxCell>
        <mxCell id="naMmjmBXUKvRt6qNmk4T-79" value="request" style="edgeLabel;html=1;align=center;verticalAlign=bottom;resizable=0;points=[];labelPosition=center;verticalLabelPosition=top;" vertex="1" connectable="0" parent="naMmjmBXUKvRt6qNmk4T-76">
          <mxGeometry x="0.1241" y="1" relative="1" as="geometry">
            <mxPoint x="24" y="1" as="offset" />
          </mxGeometry>
        </mxCell>
        <mxCell id="naMmjmBXUKvRt6qNmk4T-75" value="Admin&amp;nbsp;" style="rounded=1;whiteSpace=wrap;html=1;labelBackgroundColor=default;labelPosition=center;verticalLabelPosition=middle;align=center;verticalAlign=middle;" vertex="1" parent="WIyWlLk6GJQsqaUBKTNV-1">
          <mxGeometry x="441" y="388" width="110" height="50" as="geometry" />
        </mxCell>
        <mxCell id="naMmjmBXUKvRt6qNmk4T-80" value="" style="edgeStyle=orthogonalEdgeStyle;rounded=0;orthogonalLoop=1;jettySize=auto;html=1;entryX=0.357;entryY=0.989;entryDx=0;entryDy=0;entryPerimeter=0;" edge="1" parent="WIyWlLk6GJQsqaUBKTNV-1" target="naMmjmBXUKvRt6qNmk4T-75">
          <mxGeometry relative="1" as="geometry">
            <mxPoint x="500" y="440" as="targetPoint" />
            <mxPoint x="760" y="570" as="sourcePoint" />
            <Array as="points">
              <mxPoint x="480" y="570" />
              <mxPoint x="480" y="440" />
              <mxPoint x="480" y="440" />
            </Array>
          </mxGeometry>
        </mxCell>
        <mxCell id="naMmjmBXUKvRt6qNmk4T-82" value="response" style="edgeLabel;html=1;align=center;verticalAlign=top;resizable=0;points=[];labelPosition=center;verticalLabelPosition=bottom;" vertex="1" connectable="0" parent="naMmjmBXUKvRt6qNmk4T-80">
          <mxGeometry x="-0.2516" y="2" relative="1" as="geometry">
            <mxPoint x="33" y="-7" as="offset" />
          </mxGeometry>
        </mxCell>
      </root>
    </mxGraphModel>
  </diagram>
</mxfile>
